<mxfile host="app.diagrams.net" modified="2020-11-30T14:10:00.433Z" agent="5.0 (Macintosh)" etag="BYOFLXH7-JdZRFOP2Kh4" version="13.10.4" type="github">
  <diagram id="YB7vkcdUt168pi0u8MWM" name="Page-1">
    <mxGraphModel dx="1186" dy="778" grid="1" gridSize="10" guides="1" tooltips="1" connect="1" arrows="1" fold="1" page="1" pageScale="1" pageWidth="850" pageHeight="1100" math="0" shadow="0">
      <root>
        <mxCell id="0" />
        <mxCell id="1" parent="0" />
        <mxCell id="Jd4lmv-g46HZ0qI1Q0DX-1" value="" style="rounded=0;whiteSpace=wrap;html=1;" vertex="1" parent="1">
          <mxGeometry x="360" y="380" width="120" height="60" as="geometry" />
        </mxCell>
        <mxCell id="Jd4lmv-g46HZ0qI1Q0DX-3" style="edgeStyle=orthogonalEdgeStyle;rounded=0;orthogonalLoop=1;jettySize=auto;html=1;entryX=0.5;entryY=1;entryDx=0;entryDy=0;" edge="1" parent="1" source="Jd4lmv-g46HZ0qI1Q0DX-2" target="Jd4lmv-g46HZ0qI1Q0DX-1">
          <mxGeometry relative="1" as="geometry" />
        </mxCell>
        <mxCell id="Jd4lmv-g46HZ0qI1Q0DX-2" value="" style="ellipse;whiteSpace=wrap;html=1;aspect=fixed;" vertex="1" parent="1">
          <mxGeometry x="140" y="560" width="80" height="80" as="geometry" />
        </mxCell>
      </root>
    </mxGraphModel>
  </diagram>
</mxfile>
